<svg xmlns="http://www.w3.org/2000/svg" width="32" height="32" viewBox="0 0 32 32">
    <defs>
        <style>
            .prefix__cls-1{fill:none;stroke:#878eb8;stroke-linecap:round;stroke-linejoin:round;stroke-miterlimit:10}
        </style>
    </defs>
    <g id="prefix__circle-08" transform="translate(3.5 4.5)">
        <g id="prefix__Group_19" data-name="Group 19" transform="translate(.5 -.5)">
            <path id="prefix__Path_402" d="M12 16a4 4 0 0 1-4-4v-2a4 4 0 0 1 4-4 4 4 0 0 1 4 4v2a4 4 0 0 1-4 4z" class="prefix__cls-1" data-name="Path 402"/>
            <path id="prefix__Path_403" d="M18.1 21.154A6.082 6.082 0 0 0 13.5 19h-3a5.99 5.99 0 0 0-4.6 2.147" class="prefix__cls-1" data-name="Path 403"/>
            <circle id="prefix__Ellipse_45" cx="11" cy="11" r="11" class="prefix__cls-1" data-name="Ellipse 45" transform="translate(1 1)"/>
        </g>
        <path id="prefix__Rectangle_646" d="M0 0H32V32H0z" data-name="Rectangle 646" transform="translate(-3.5 -4.5)" style="fill:none"/>
    </g>
</svg>
